<svg xmlns="http://www.w3.org/2000/svg" version="1.1" xmlns:xlink="http://www.w3.org/1999/xlink" xmlns:svgjs="http://svgjs.dev/svgjs" width="1000" height="623" viewBox="0 0 1000 623"><g transform="matrix(1,0,0,1,-0.6060606060606233,0.2522267206477409)"><svg viewBox="0 0 396 247" data-background-color="#61777f" preserveAspectRatio="xMidYMid meet" height="623" width="1000" xmlns="http://www.w3.org/2000/svg" xmlns:xlink="http://www.w3.org/1999/xlink"><g id="tight-bounds" transform="matrix(1,0,0,1,0.2400000000000091,-0.09999999999999432)"><svg viewBox="0 0 395.52 247.2" height="247.2" width="395.52"><g><svg></svg></g><g><svg viewBox="0 0 395.52 247.2" height="247.2" width="395.52"><mask id="f9f4609f-06ad-4769-8cdb-4aae6413b67f"><rect width="640" height="400" fill="white"></rect><g transform="matrix(1,0,0,1,39.55199999999999,80.77244307572698)"><svg viewBox="0 0 316.416 85.65511384854602" height="85.65511384854602" width="316.416"><g><svg viewBox="0 0 316.416 85.65511384854602" height="85.65511384854602" width="316.416"><g><svg viewBox="0 0 316.416 85.65511384854602" height="85.65511384854602" width="316.416"><g><svg viewBox="0 0 316.416 85.65511384854602" height="85.65511384854602" width="316.416"><g id="SvgjsG1231"><svg viewBox="0 0 316.416 85.65511384854602" height="85.65511384854602" width="316.416" id="SvgjsSvg1230"><g><svg viewBox="0 0 316.416 50.45748778960551" height="50.45748778960551" width="316.416"><g transform="matrix(1,0,0,1,0,0)"><svg width="316.416" viewBox="-1.2000000000000002 -34 240.54 39.2" height="50.45748778960551" data-palette-color="#66cc33"><path d="M17.4 0.3L16.7 0.25 16.05 0.15 15.25 0.15Q14.5 0.05 12.65-0.05L12.65-0.05Q12.25-0.05 11.9-0.1 11.55-0.15 11.25-0.15L11.25-0.15 10.15-0.15 9.65-0.2Q8.05-0.2 7.3-0.15L7.3-0.15Q6.55-0.05 4.95-0.05L4.95-0.05 3.95-0.05 3.05 0 2.9-0.2 2.9-0.75 2.9-2 2.9-3.3 2.9-4.15 2.9-7.55Q2.9-8.75 2.8-9.3L2.8-9.3 2.8-10.5 3-12.65Q3.15-14.65 3.15-18.4L3.15-18.4Q3.25-24.45 3.9-27.15L3.9-27.15Q4.25-28.6 5.05-29L5.05-29 10.9-28.95Q11.65-28.9 13.05-28.9L13.05-28.9 15.45-28.9Q15.7-28.85 16.38-28.8 17.05-28.75 17.4-28.55L17.4-28.55Q17.7-28.3 17.82-27.88 17.95-27.45 17.95-26.65L17.95-26.65 17.9-26.25 17.9-25.65Q17.75-25.3 17.75-24.95L17.75-24.95Q17.65-24.55 17.7-24.15L17.7-24.15 17.7-23.4Q17.75-23.15 17.75-22.7L17.75-22.7 17.8-22.3 17.8-21.15 17.85-19.55Q17.9-19.05 17.9-18.15L17.9-18.15Q18-17.45 18.15-17.2L18.15-17.2Q18.15-16.85 18.1-16.45 18.05-16.05 18.05-15.65L18.05-15.65Q18-15.05 18-13.85L18-13.85Q18-12.7 18.05-12.15L18.05-12.15Q18.05-11.35 18.3-10.5L18.3-10.5Q18.8-10.3 19.45-10.3L19.45-10.3Q21.1-10.3 22.88-10.35 24.65-10.4 26.05-10.65L26.05-10.65Q26.35-10.6 26.63-10.25 26.9-9.9 26.9-9.65L26.9-9.65 26.55-1.05Q26.45-0.75 26.15-0.65L26.15-0.65Q25.3-0.25 23.8-0.15L23.8-0.15Q21.8 0.15 21.15 0.15L21.15 0.15 20.3 0.15Q19.3 0.15 18.8 0.2L18.8 0.2Q17.8 0.3 17.4 0.3L17.4 0.3ZM31.65 0.05Q30.7 0.05 30.9-1.65L30.9-1.65Q30.9-2.25 31.15-3L31.15-3Q31.15-3.35 31.2-3.58 31.25-3.8 31.25-3.95L31.25-3.95Q32.4-9.4 33.8-14.7L33.8-14.7 37.2-28Q37.2-28.1 37.35-28.25 37.5-28.4 37.65-28.5L37.65-28.5 38-28.5Q38.6-28.5 38.95-28.65L38.95-28.65Q39.25-28.7 40-28.7L40-28.7Q41.2-28.7 41.8-28.65L41.8-28.65Q42.7-28.5 43.65-28.5L43.65-28.5 46.25-28.55Q46.65-28.65 47.2-28.65L47.2-28.65 49.4-28.75 51.05-28.75Q52-28.75 52.9-28.7L52.9-28.7 54.3-28.7Q54.8-28.65 55.75-28.65L55.75-28.65 57.65-28.65Q57.8-28.65 57.95-28.6 58.1-28.55 58.2-28.5L58.2-28.5Q58.4-28.4 58.7-28.4L58.7-28.4 59.15-28.4Q59.5-28.15 59.5-27.9L59.5-27.9 63.05-14.7Q64.7-8.35 65.65-3.95L65.65-3.95Q65.65-3.7 65.8-3L65.8-3Q66-2 66-1.4L66-1.4Q66-1.05 65.9-0.45L65.9-0.45Q65.65 0.05 65.2 0.05L65.2 0.05 64.65 0.05Q64 0.05 63.65 0L63.65 0 62.55 0 61.5 0 60.65 0Q60.3 0 60.25-0.05L60.25-0.05 57.5-0.05 57.45-0.15Q57.35-0.25 57.15-0.25L57.15-0.25 57-0.15Q57-0.05 56.9-0.05L56.9-0.05 56.75-0.05 56.4-0.05Q56.15-0.15 55.5-0.15L55.5-0.15Q54.3-0.25 53.5-0.25L53.5-0.25Q52.95-1.4 52.2-5.3L52.2-5.3Q51.15-5.15 49.8-5.15L49.8-5.15 48.5-5.15 47.25-5.15Q47.05-4.4 47-3.9L47-3.9Q46.95-3.65 46.6-2.2 46.25-0.75 45.95-0.25L45.95-0.25 45.65-0.15Q45.5-0.1 45.4-0.08 45.3-0.05 45.3-0.05L45.3-0.05 45.2-0.05Q44.9-0.05 44.8-0.15L44.8-0.15Q44.6-0.25 44.55-0.25L44.55-0.25 42.65-0.15 41.25-0.15Q41-0.1 40.85-0.08 40.7-0.05 40.65-0.05L40.65-0.05 36.65-0.05 36.25-0.05Q35.8 0 34.4 0L34.4 0 33.2 0Q32.9 0.05 32.25 0.05L32.25 0.05 31.65 0.05ZM51.75-10.65Q51.45-12.35 51.4-12.65L51.4-12.65 51-15.05Q50.9-15.75 50.8-16.32 50.7-16.9 50.65-17.4L50.65-17.4Q50.5-18 50.42-18.53 50.35-19.05 50.25-19.5L50.25-19.5Q50.2-19.8 50.15-20.28 50.1-20.75 50-20.95L50-20.95 49.9-21.55Q49.9-21.75 49.8-21.9L49.8-21.9 49.75-22.2Q49.65-21.9 49.65-21.9L49.65-21.9 49.65-21.7 49.65-21.55Q49.65-21.5 49.6-21.38 49.55-21.25 49.5-20.95L49.5-20.95Q49.45-20.7 49.4-20.33 49.35-19.95 49.25-19.5L49.25-19.5 48.9-17.45 48.5-15.15 48.35-14.05Q48.25-13.65 48.15-12.75L48.15-12.75Q47.7-10.5 47.75-10.7L47.75-10.7 49.95-10.7Q50-10.75 50.1-10.83 50.2-10.9 50.25-10.9L50.25-10.9 50.4-10.9Q50.65-10.9 50.82-10.85 51-10.8 51.15-10.75L51.15-10.75Q51.45-10.65 51.75-10.65L51.75-10.65ZM72.95 0.15Q72.2 0.15 71.95-0.75L71.95-0.75Q71.8-1.25 71.8-2.55L71.8-2.55Q71.8-6.4 71.7-9.25L71.7-9.25Q71.55-13.6 71.55-18.3L71.55-18.3 71.55-27.9Q71.55-28.3 71.92-28.65 72.3-29 72.7-29L72.7-29Q76.3-29 77.7-28.95L77.7-28.95 81.35-28.9Q82.85-28.9 86.35-29L86.35-29Q88.15-29.05 92.3-29.05L92.3-29.05Q95.35-29.05 97.55-28.3L97.55-28.3Q100.35-27.4 102.3-25.4L102.3-25.4Q104.3-23 104.3-19.05L104.3-19.05Q104.3-12.55 100.95-9.45L100.95-9.45Q97.9-6.7 92.1-6.7L92.1-6.7 86.15-6.7Q86.15-5.2 86.05-4.9L86.05-4.9Q86.05-4.55 86-4.4 85.95-4.25 85.95-4.2L85.95-4.2Q85.95-4.05 86.05-3.9L86.05-3.9 86.05-3.2 86.15-2.55 86.15-2.2Q86.15-0.85 85.55-0.3L85.55-0.3Q85.3-0.1 84.82-0.05 84.35 0 83.8 0L83.8 0 81.1 0 79.7 0.05Q77.6 0.15 76.3 0.15L76.3 0.15 72.95 0.15ZM87.35-11.95L88.55-11.95Q89.35-11.95 89.85-13.65L89.85-13.65Q90.2-14.8 90.4-17.2L90.4-17.2Q90.45-18.4 90.45-20L90.45-20 90.45-20.45Q90.45-21.55 90.2-22.55L90.2-22.55Q89.95-24.05 89.35-24.55L89.35-24.55Q89-24.9 88.55-24.9L88.55-24.9Q88.15-24.9 87.85-24.4L87.85-24.4Q87.3-23.35 87.05-20.9L87.05-20.9Q86.8-19.5 86.8-18.5L86.8-18.5Q86.55-16.2 86.55-12.05L86.55-12.05Q86.55-12.05 86.62-12.03 86.7-12 86.8-12L86.8-12Q86.85-11.95 87.35-11.95L87.35-11.95ZM125.59 0.15L123.14 0.15 120.84 0.15 118.24 0.15 114.94 0.15Q114.49-0.55 114.34-2.4L114.34-2.4Q114.14-4.05 114.14-7.2L114.14-7.2 114.19-12.7Q114.24-14.7 114.24-19.05L114.24-19.05 114.09-19.2 109.14-19.2Q108.04-19.2 107.69-21.7L107.69-21.7Q107.49-23.05 107.49-25.65L107.49-25.65 107.49-26.3Q107.59-26.65 107.59-27.4L107.59-27.4 107.59-28.4 107.64-28.8 107.84-29 108.74-28.95 109.74-28.95Q111.94-28.95 113.09-29L113.09-29 116.34-29 117.24-29 118.94-29 121.09-29 123.24-29Q123.89-28.95 125.09-28.95L125.09-28.95 126.34-28.95Q126.54-29.05 126.99-29.05L126.99-29.05Q127.34-29.15 127.64-29.15L127.64-29.15Q128.59-29.15 129.09-29.05L129.09-29.05Q130.09-28.95 130.59-28.95L130.59-28.95 131.89-29 133.84-29Q135.34-29 135.89-28.95L135.89-28.95 136.59-28.9Q136.64-28.85 136.74-28.78 136.84-28.7 136.84-28.65L136.84-28.65 136.84-20.15Q136.84-19.85 136.52-19.5 136.19-19.15 135.89-19.05L135.89-19.05Q134.24-19.4 131.59-19.4L131.59-19.4 129.69-19.4Q128.94-19.4 128.69-17.5L128.69-17.5Q128.59-16.95 128.59-15.9L128.59-15.9 128.59-14.4Q128.59-13.4 128.64-12.9L128.64-12.9 128.64-11.5Q128.64-9.45 128.44-7.7L128.44-7.7Q128.34-6.4 128.34-5.8L128.34-5.8Q128.24-5.2 128.24-4.15L128.24-4.15Q128.24-2.65 128.14-1.65L128.14-1.65Q128.09-0.1 126.99 0L126.99 0Q125.79 0.15 125.59 0.15L125.59 0.15ZM143.14-0.2Q143.04-0.2 142.99-0.4L142.99-0.4Q142.64-0.85 142.49-1.5L142.49-1.5Q142.34-1.75 142.24-2.15L142.24-2.15Q141.79-3.05 141.59-4.65L141.59-4.65Q141.39-6.95 141.39-8.3L141.39-8.3Q141.34-8.9 141.34-9.95L141.34-9.95 141.34-11.15Q141.34-12.65 141.29-13.5L141.29-13.5Q141.24-14.4 141.24-17.05L141.24-17.05Q141.24-24.15 141.54-28L141.54-28Q141.54-28.6 143.24-28.9L143.24-28.9 144.74-28.9 145.99-28.9Q148.84-28.9 150.24-28.8L150.24-28.8Q152.34-28.65 154.49-28.65L154.49-28.65Q154.99-28.65 155.24-28.7L155.24-28.7 155.99-28.7 156.24-28.5Q157.89-28.85 159.64-28.95 161.39-29.05 163.89-29.05L163.89-29.05Q163.99-29.05 164.14-28.9L164.14-28.9 165.74-28.9Q166.14-28.9 166.37-28.45 166.59-28 166.74-27.15L166.74-27.15Q166.94-26.5 167.04-25.55L167.04-25.55Q167.24-24.3 167.39-23.9L167.39-23.9Q167.39-22.5 166.89-22.5L166.89-22.5Q166.84-22.5 166.74-22.65L166.74-22.65 166.54-22.7Q166.29-22.75 165.99-22.65L165.99-22.65Q165.69-22.5 165.34-22.5L165.34-22.5Q165.04-22.5 164.84-22.65L164.84-22.65Q164.74-22.7 164.39-22.7L164.39-22.7Q163.94-22.7 163.34-22.55L163.34-22.55Q163.14-22.5 162.57-22.4 161.99-22.3 161.24-22.3L161.24-22.3Q159.09-22.3 158.14-22.2L158.14-22.2Q157.59-22.15 157.09-21.9L157.09-21.9 157.09-22Q156.89-22 156.74-21.5L156.74-21.5Q156.39-20.65 156.29-19.15L156.29-19.15Q156.24-18.7 156.24-18.15L156.24-18.15Q156.24-17.6 156.42-17.4 156.59-17.2 156.99-17.2L156.99-17.2Q157.29-17.2 157.49-17.4L157.49-17.4Q157.59-17.4 157.74-17.35 157.89-17.3 157.99-17.2L157.99-17.2 162.24-17.2Q162.29-17.3 162.39-17.35 162.49-17.4 162.59-17.4L162.59-17.4Q163.09-17.4 163.34-17.25L163.34-17.25Q163.64-17.1 164.54-16.95L164.54-16.95Q165.04-16.95 165.24-16.65L165.24-16.65Q165.49-16.3 165.49-16L165.49-16 166.54-12.7Q166.69-11.9 165.04-11.65L165.04-11.65Q164.09-11.45 161.39-11.45L161.39-11.45 159.24-11.45 157.74-11.45Q157.04-11.45 156.69-11.38 156.34-11.3 156.24-11L156.24-11Q156.04-10.75 156.04-10.2L156.04-10.2 156.04-10Q156.04-9.75 156.09-9.65L156.09-9.65 156.04-8.55Q155.99-8.2 155.99-7.5L155.99-7.5 155.99-7 155.99-6.55 155.99-6.25Q158.24-6.25 160.59-6.4L160.59-6.4Q162.89-6.55 165.14-6.55L165.14-6.55Q165.29-6.55 165.39-6.33 165.49-6.1 165.49-5.8L165.49-5.8Q165.59-5.5 165.59-5.15L165.59-5.15Q165.69-4.4 165.89-3.75L165.89-3.75 166.24-2.3 166.24-1.3 166.24-1.15 166.24-0.75 165.84-0.4 165.49-0.4 165.34-0.4Q164.79-0.4 164.64-0.45L164.64-0.45Q164.49-0.55 164.29-0.55L164.29-0.55Q164.19-0.5 163.99-0.4 163.79-0.3 163.64-0.2L163.64-0.2 163.64-0.45 163.04-0.4 162.29-0.4Q162.09-0.4 161.99-0.5L161.99-0.5 161.59-0.55Q159.74-0.55 158.99-0.2L158.99-0.2 143.14-0.2ZM187.64 1.2Q183.24 1.2 180.39 0.4L180.39 0.4Q176.59-0.65 174.49-3.65L174.49-3.65Q172.14-7 172.14-13.4L172.14-13.4Q172.14-17.3 173.19-20.43 174.24-23.55 176.24-25.7L176.24-25.7Q178.24-27.8 180.89-28.9 183.54-30 186.64-30L186.64-30Q191.84-30 197.44-26.75L197.44-26.75 196.79-21.15 195.64-21.4Q195.44-21.45 194.09-21.75 192.74-22.05 191.64-22.05L191.64-22.05Q189.29-22.05 188.14-20.45L188.14-20.45Q186.64-18.45 186.64-14L186.64-14Q186.64-10.35 187.69-8.5L187.69-8.5Q188.69-6.95 190.39-6.95L190.39-6.95Q191.59-6.95 193.19-7.75L193.19-7.75Q194.74-8.5 196.19-9.5L196.19-9.5 196.69-2.4Q194.94-0.75 192.39 0.2L192.39 0.2Q190.09 1.2 187.64 1.2L187.64 1.2ZM225.39 0.9L224.39-0.15Q224.29-0.4 224.14-0.4L224.14-0.4 224.09-0.5Q224.04-0.5 223.96-0.58 223.89-0.65 223.84-0.65L223.84-0.65 219.89-5.15Q219.84-5.25 219.49-5.65 219.14-6.05 218.94-6.25L218.94-6.25Q218.49-6.7 218.34-6.9L218.34-6.9Q217.99-7.15 217.89-7.15L217.89-7.15Q217.59-7.15 217.59-6.8L217.59-6.8 217.59-5.75Q217.49-5.2 217.49-4.15L217.49-4.15Q217.44-3.55 217.44-2.55L217.44-2.55Q217.39-2.05 217.39-1.5L217.39-1.5 217.39-1.15 217.39-0.7Q217.39 0 217.24 0L217.24 0 217.09 0 216.84 0 216.59 0 216.39 0Q214.94 0.15 212.09 0.15L212.09 0.15 207.74 0.15 206.99 0.15 206.09 0.15 205.34 0.15 204.99 0.15 203.09-0.3 202.94-0.65 202.94-1.15Q202.89-1.45 202.89-2.4L202.89-2.4Q202.84-3.4 202.84-6.05L202.84-6.05Q202.84-7.3 202.74-7.9L202.74-7.9 202.74-9.4Q202.59-17 202.59-24.95L202.59-24.95 202.59-26.15Q202.49-26.65 202.49-27.25L202.49-27.25 202.49-27.45 202.49-27.8 202.49-28.15Q202.49-28.25 202.59-28.3L202.59-28.3Q202.69-28.7 202.96-28.88 203.24-29.05 203.69-29.15L203.69-29.15Q203.89-29.15 204.06-29.1 204.24-29.05 204.49-29.05L204.49-29.05Q205.19-28.95 205.34-28.95L205.34-28.95 213.84-28.95 217.69-28.9Q217.79-28.9 217.84-28.85 217.89-28.8 217.89-28.7L217.89-28.7Q218.09-28.2 218.09-27.65L218.09-27.65Q218.14-27.4 218.14-26.95L218.14-26.95Q218.14-24.8 218.09-23.75L218.09-23.75Q217.89-22.4 217.89-21.05L217.89-21.05Q218.49-21.05 218.84-21.3L218.84-21.3Q218.89-21.35 218.99-21.4 219.09-21.45 219.14-21.55L219.14-21.55Q219.24-21.7 219.59-21.95L219.59-21.95 220.34-22.7Q222.09-24.25 221.94-24.15L221.94-24.15 225.94-27.9Q226.49-28.35 226.91-28.7 227.34-29.05 227.64-29.3L227.64-29.3Q228.49-29.9 228.69-29.9L228.69-29.9Q228.94-29.9 229.24-29.4L229.24-29.4Q229.74-28.9 229.84-28.75L229.84-28.75Q230.29-27.9 231.09-27.13 231.89-26.35 232.09-26.15L232.09-26.15Q232.94-25.2 233.39-24.6 233.84-24 234.14-23.25L234.14-23.25 234.14-23.15Q234.14-22.4 232.99-21.25L232.99-21.25Q232.69-20.95 232.46-20.75 232.24-20.55 232.09-20.4L232.09-20.4 231.34-19.65Q231.19-19.65 230.94-19.3L230.94-19.3 229.24-17.9Q228.29-17.05 227.59-16.5L227.59-16.5 227.19-16.15 226.84-15.9Q226.44-15.75 226.34-15.65L226.34-15.65Q226.34-15.55 226.29-15.45 226.24-15.35 226.24-15.2L226.24-15.2Q226.24-14.85 226.46-14.53 226.69-14.2 226.94-13.9L226.94-13.9Q227.09-13.7 227.59-13.4L227.59-13.4Q227.59-13.4 228.09-12.9L228.09-12.9 228.94-12.15 230.59-10.7 232.04-9.35 233.74-7.7Q234.59-6.8 234.96-6.28 235.34-5.75 235.34-5.4L235.34-5.4Q235.34-4.9 234.99-4.65L234.99-4.65Q234.19-3.9 233.59-3.5L233.59-3.5Q232.59-2.8 232.09-2.4L232.09-2.4Q230.24-0.95 229.34-0.45L229.34-0.45Q229.14-0.4 227.94 0.15L227.94 0.15 227.14 0.55Q226.79 0.75 226.74 0.75L226.74 0.75Q226.14 1.05 225.79 1.05L225.79 1.05Q225.54 1.05 225.39 0.9L225.39 0.9Z" opacity="1" transform="matrix(1,0,0,1,0,0)" fill="black" class="wordmark-text-0" id="SvgjsPath1229" stroke-width="7" stroke="black" stroke-linejoin="round"></path></svg></g></svg></g><g transform="matrix(1,0,0,1,3.5,60.186498755246085)"><svg viewBox="0 0 309.416 25.468615093299935" height="25.468615093299935" width="309.416"><g transform="matrix(1,0,0,1,0,0)"><svg width="309.416" viewBox="-2.56 -41.5 669.76 55.66" height="25.468615093299935" data-palette-color="#d2d6dc"><path d="M12.23-35.55L6.71-3.83 23.07-3.83 22.39 0 1.44 0 7.62-35.55 12.23-35.55ZM81.63 0L77.13 0Q76.96-0.71 76.96-1.39L76.96-1.39 77.04-2.78Q73.4 0.59 69.32 0.49L69.32 0.49Q65.83 0.44 63.65-1.72 61.46-3.88 61.66-7.13L61.66-7.13Q61.9-11.33 65.33-13.68 68.76-16.04 74.35-16.04L74.35-16.04 78.97-16.02 79.26-18.12Q79.5-20.48 78.34-21.86 77.18-23.24 74.86-23.29L74.86-23.29Q72.59-23.34 70.85-22.18 69.1-21.02 68.71-19.12L68.71-19.12 64.27-19.09Q64.49-21.41 66.07-23.21 67.66-25 70.15-25.99 72.64-26.98 75.3-26.93L75.3-26.93Q79.43-26.83 81.72-24.43 84.02-22.02 83.65-18.04L83.65-18.04 81.5-4.96 81.38-3.08Q81.33-1.73 81.68-0.42L81.68-0.42 81.63 0ZM70.2-3.42L70.2-3.42Q72.32-3.37 74.22-4.43 76.11-5.49 77.48-7.37L77.48-7.37 78.43-12.82 75.08-12.84Q70.91-12.84 68.69-11.52 66.47-10.21 66.17-7.79L66.17-7.79Q65.95-5.93 67.04-4.7 68.13-3.47 70.2-3.42ZM145.48-13.6L145.41-13.09Q144.92-9.06 143.23-5.83 141.55-2.61 139.06-1.01 136.57 0.59 133.54 0.51L133.54 0.51Q128.95 0.42 126.51-2.59L126.51-2.59 124.14 10.16 119.72 10.16 126.07-26.42 130.07-26.44 129.59-23.49Q132.86-27 137.42-26.9L137.42-26.9Q141.23-26.81 143.36-24.1 145.48-21.39 145.6-16.63L145.6-16.63Q145.63-15.06 145.48-13.6L145.48-13.6ZM141.06-13.6L141.06-13.6 141.18-15.65Q141.18-19.21 139.83-21.11 138.47-23 135.91-23.1L135.91-23.1Q132.08-23.19 129.29-19.46L129.29-19.46 127.07-6.79Q128.56-3.27 132.42-3.17L132.42-3.17Q135.71-3.1 138.02-5.75 140.33-8.4 141.06-13.6ZM190.09-32.81L194.49-32.81 193.37-26.42 198.17-26.42 197.56-22.92 192.78-22.92 190.02-6.49Q189.95-5.86 190-5.32L190-5.32Q190.17-3.42 192.07-3.42L192.07-3.42Q192.88-3.42 194.22-3.66L194.22-3.66 193.88 0.02Q192.29 0.46 190.66 0.46L190.66 0.46Q188.02 0.42 186.7-1.48 185.38-3.37 185.67-6.57L185.67-6.57 188.36-22.92 183.7-22.92 184.31-26.42 188.97-26.42 190.09-32.81ZM246.96-26.9L246.96-26.9Q250.28-26.86 252.65-25.1 255.02-23.34 256.16-20.25 257.29-17.16 256.93-13.5L256.93-13.5 256.88-12.96Q256.41-9.11 254.58-5.99 252.75-2.88 249.84-1.15 246.94 0.59 243.47 0.49L243.47 0.49Q240.18 0.44 237.8-1.32 235.42-3.08 234.32-6.1 233.22-9.13 233.54-12.77L233.54-12.77Q233.9-16.87 235.76-20.14 237.61-23.41 240.53-25.21 243.45-27 246.96-26.9ZM238.03-13.31L237.98-12.74Q237.81-11.21 237.98-9.55L237.98-9.55Q238.22-6.67 239.7-4.96 241.18-3.25 243.64-3.17L243.64-3.17Q245.84-3.1 247.7-4.26 249.55-5.42 250.82-7.76 252.09-10.11 252.46-12.96L252.46-12.96Q252.65-15.21 252.53-16.75L252.53-16.75Q252.24-19.7 250.75-21.41 249.26-23.12 246.79-23.22L246.79-23.22Q243.38-23.29 240.98-20.53 238.59-17.77 238.03-13.31L238.03-13.31ZM318.07-13.6L317.99-13.09Q317.51-9.06 315.82-5.83 314.14-2.61 311.65-1.01 309.16 0.59 306.13 0.51L306.13 0.51Q301.54 0.42 299.1-2.59L299.1-2.59 296.73 10.16 292.31 10.16 298.66-26.42 302.66-26.44 302.17-23.49Q305.45-27 310.01-26.9L310.01-26.9Q313.82-26.81 315.94-24.1 318.07-21.39 318.19-16.63L318.19-16.63Q318.21-15.06 318.07-13.6L318.07-13.6ZM313.65-13.6L313.65-13.6 313.77-15.65Q313.77-19.21 312.42-21.11 311.06-23 308.5-23.1L308.5-23.1Q304.66-23.19 301.88-19.46L301.88-19.46 299.66-6.79Q301.15-3.27 305.01-3.17L305.01-3.17Q308.3-3.1 310.61-5.75 312.92-8.4 313.65-13.6ZM410.01-35.55L411.67-10.96 411.57-6.67 413.23-10.86 423.85-35.55 427.73-35.55 430.54-10.55 430.78-6.49 432.32-11.4 441.4-35.55 446.12-35.55 432.2 0 428.02 0 424.95-26.1 424.85-28.54 423.83-25.71 412.5 0 408.32 0 405.54-35.55 410.01-35.55ZM492.59-26.9L492.59-26.9Q495.91-26.86 498.27-25.1 500.64-23.34 501.78-20.25 502.91-17.16 502.55-13.5L502.55-13.5 502.5-12.96Q502.03-9.11 500.2-5.99 498.37-2.88 495.47-1.15 492.56 0.59 489.09 0.49L489.09 0.49Q485.8 0.44 483.42-1.32 481.04-3.08 479.94-6.1 478.84-9.13 479.16-12.77L479.16-12.77Q479.52-16.87 481.38-20.14 483.23-23.41 486.15-25.21 489.07-27 492.59-26.9ZM483.65-13.31L483.6-12.74Q483.43-11.21 483.6-9.55L483.6-9.55Q483.85-6.67 485.32-4.96 486.8-3.25 489.27-3.17L489.27-3.17Q491.46-3.1 493.32-4.26 495.17-5.42 496.44-7.76 497.71-10.11 498.08-12.96L498.08-12.96Q498.27-15.21 498.15-16.75L498.15-16.75Q497.86-19.7 496.37-21.41 494.88-23.12 492.41-23.22L492.41-23.22Q489-23.29 486.6-20.53 484.21-17.77 483.65-13.31L483.65-13.31ZM556.61-26.59L556.12-22.39 554.05-22.61Q549.8-22.61 547.36-18.77L547.36-18.77 544.11 0 539.69 0 544.28-26.42 548.55-26.44 547.89-23.36Q550.7-27.05 554.51-26.95L554.51-26.95Q555.32-26.95 556.61-26.59L556.61-26.59ZM601.52-37.5L595 0 590.6 0 597.1-37.5 601.52-37.5ZM637.37-13.26L637.37-13.26Q637.85-17.29 639.59-20.53 641.32-23.78 643.86-25.39 646.4-27 649.45-26.93L649.45-26.93Q653.87-26.83 656.24-23.71L656.24-23.71 658.78-37.5 663.2-37.5 656.7 0 652.67 0 653.14-2.83Q650.01 0.59 645.42 0.49L645.42 0.49Q641.76 0.39 639.59-2.38 637.42-5.15 637.24-9.81L637.24-9.81Q637.17-11.25 637.37-13.26ZM641.61-10.72L641.61-10.72Q641.54-7.23 642.86-5.3 644.18-3.37 646.72-3.32L646.72-3.32Q650.55-3.15 653.53-7.18L653.53-7.18 655.63-19.38Q654.16-23 650.31-23.1L650.31-23.1Q647.69-23.17 645.7-21.52 643.71-19.87 642.68-16.91 641.64-13.94 641.61-10.72Z" opacity="1" transform="matrix(1,0,0,1,0,0)" fill="black" class="slogan-text-1" id="SvgjsPath1228" stroke-width="7" stroke="black" stroke-linejoin="round"></path></svg></g></svg></g></svg></g></svg></g></svg></g></svg></g></svg></g></mask><g transform="matrix(1,0,0,1,39.55199999999999,80.77244307572698)"><svg viewBox="0 0 316.416 85.65511384854602" height="85.65511384854602" width="316.416"><g><svg viewBox="0 0 316.416 85.65511384854602" height="85.65511384854602" width="316.416"><g><svg viewBox="0 0 316.416 85.65511384854602" height="85.65511384854602" width="316.416"><g><svg viewBox="0 0 316.416 85.65511384854602" height="85.65511384854602" width="316.416"><g id="textblocktransform"><svg viewBox="0 0 316.416 85.65511384854602" height="85.65511384854602" width="316.416" id="textblock"><g><svg viewBox="0 0 316.416 50.45748778960551" height="50.45748778960551" width="316.416"><g transform="matrix(1,0,0,1,0,0)"><svg width="316.416" viewBox="-1.2000000000000002 -34 240.54 39.2" height="50.45748778960551" data-palette-color="#66cc33"><path d="M17.4 0.3L16.7 0.25 16.05 0.15 15.25 0.15Q14.5 0.05 12.65-0.05L12.65-0.05Q12.25-0.05 11.9-0.1 11.55-0.15 11.25-0.15L11.25-0.15 10.15-0.15 9.65-0.2Q8.05-0.2 7.3-0.15L7.3-0.15Q6.55-0.05 4.95-0.05L4.95-0.05 3.95-0.05 3.05 0 2.9-0.2 2.9-0.75 2.9-2 2.9-3.3 2.9-4.15 2.9-7.55Q2.9-8.75 2.8-9.3L2.8-9.3 2.8-10.5 3-12.65Q3.15-14.65 3.15-18.4L3.15-18.4Q3.25-24.45 3.9-27.15L3.9-27.15Q4.25-28.6 5.05-29L5.05-29 10.9-28.95Q11.65-28.9 13.05-28.9L13.05-28.9 15.45-28.9Q15.7-28.85 16.38-28.8 17.05-28.75 17.4-28.55L17.4-28.55Q17.7-28.3 17.82-27.88 17.95-27.45 17.95-26.65L17.95-26.65 17.9-26.25 17.9-25.65Q17.75-25.3 17.75-24.95L17.75-24.95Q17.65-24.55 17.7-24.15L17.7-24.15 17.7-23.4Q17.75-23.15 17.75-22.7L17.75-22.7 17.8-22.3 17.8-21.15 17.85-19.55Q17.9-19.05 17.9-18.15L17.9-18.15Q18-17.45 18.15-17.2L18.15-17.2Q18.15-16.85 18.1-16.45 18.05-16.05 18.05-15.65L18.05-15.65Q18-15.05 18-13.85L18-13.85Q18-12.7 18.05-12.15L18.05-12.15Q18.05-11.35 18.3-10.5L18.3-10.5Q18.8-10.3 19.45-10.3L19.45-10.3Q21.1-10.3 22.88-10.35 24.65-10.4 26.05-10.65L26.05-10.65Q26.35-10.6 26.63-10.25 26.9-9.9 26.9-9.65L26.9-9.65 26.55-1.05Q26.45-0.75 26.15-0.65L26.15-0.65Q25.3-0.25 23.8-0.15L23.8-0.15Q21.8 0.15 21.15 0.15L21.15 0.15 20.3 0.15Q19.3 0.15 18.8 0.2L18.8 0.2Q17.8 0.3 17.4 0.3L17.4 0.3ZM31.65 0.05Q30.7 0.05 30.9-1.65L30.9-1.65Q30.9-2.25 31.15-3L31.15-3Q31.15-3.35 31.2-3.58 31.25-3.8 31.25-3.95L31.25-3.95Q32.4-9.4 33.8-14.7L33.8-14.7 37.2-28Q37.2-28.1 37.35-28.25 37.5-28.4 37.65-28.5L37.65-28.5 38-28.5Q38.6-28.5 38.95-28.65L38.95-28.65Q39.25-28.7 40-28.7L40-28.7Q41.2-28.7 41.8-28.65L41.8-28.65Q42.7-28.5 43.65-28.5L43.65-28.5 46.25-28.55Q46.65-28.65 47.2-28.65L47.2-28.65 49.4-28.75 51.05-28.75Q52-28.75 52.9-28.7L52.9-28.7 54.3-28.7Q54.8-28.65 55.75-28.65L55.75-28.65 57.65-28.65Q57.8-28.65 57.95-28.6 58.1-28.55 58.2-28.5L58.2-28.5Q58.4-28.4 58.7-28.4L58.7-28.4 59.15-28.4Q59.5-28.15 59.5-27.9L59.5-27.9 63.05-14.7Q64.7-8.35 65.65-3.95L65.65-3.95Q65.65-3.7 65.8-3L65.8-3Q66-2 66-1.4L66-1.4Q66-1.05 65.9-0.45L65.9-0.45Q65.65 0.05 65.2 0.05L65.2 0.05 64.65 0.05Q64 0.05 63.65 0L63.65 0 62.55 0 61.5 0 60.65 0Q60.3 0 60.25-0.05L60.25-0.05 57.5-0.05 57.45-0.15Q57.35-0.25 57.15-0.25L57.15-0.25 57-0.15Q57-0.05 56.9-0.05L56.9-0.05 56.75-0.05 56.4-0.05Q56.15-0.15 55.5-0.15L55.5-0.15Q54.3-0.25 53.5-0.25L53.5-0.25Q52.95-1.4 52.2-5.3L52.2-5.3Q51.15-5.15 49.8-5.15L49.8-5.15 48.5-5.15 47.25-5.15Q47.05-4.4 47-3.9L47-3.9Q46.95-3.65 46.6-2.2 46.25-0.75 45.95-0.25L45.95-0.25 45.65-0.15Q45.5-0.1 45.4-0.08 45.3-0.05 45.3-0.05L45.3-0.05 45.2-0.05Q44.9-0.05 44.8-0.15L44.8-0.15Q44.6-0.25 44.55-0.25L44.55-0.25 42.65-0.15 41.25-0.15Q41-0.1 40.85-0.08 40.7-0.05 40.65-0.05L40.65-0.05 36.65-0.05 36.25-0.05Q35.8 0 34.4 0L34.4 0 33.2 0Q32.9 0.05 32.25 0.05L32.25 0.05 31.65 0.05ZM51.75-10.65Q51.45-12.35 51.4-12.65L51.4-12.65 51-15.05Q50.9-15.75 50.8-16.32 50.7-16.9 50.65-17.4L50.65-17.4Q50.5-18 50.42-18.53 50.35-19.05 50.25-19.5L50.25-19.5Q50.2-19.8 50.15-20.28 50.1-20.75 50-20.95L50-20.95 49.9-21.55Q49.9-21.75 49.8-21.9L49.8-21.9 49.75-22.2Q49.65-21.9 49.65-21.9L49.65-21.9 49.65-21.7 49.65-21.55Q49.65-21.5 49.6-21.38 49.55-21.25 49.5-20.95L49.5-20.95Q49.45-20.7 49.4-20.33 49.35-19.95 49.25-19.5L49.25-19.5 48.9-17.45 48.5-15.15 48.35-14.05Q48.25-13.65 48.15-12.75L48.15-12.75Q47.7-10.5 47.75-10.7L47.75-10.7 49.95-10.7Q50-10.75 50.1-10.83 50.2-10.9 50.25-10.9L50.25-10.9 50.4-10.9Q50.65-10.9 50.82-10.85 51-10.8 51.15-10.75L51.15-10.75Q51.45-10.65 51.75-10.65L51.75-10.65ZM72.95 0.15Q72.2 0.15 71.95-0.75L71.95-0.75Q71.8-1.25 71.8-2.55L71.8-2.55Q71.8-6.4 71.7-9.25L71.7-9.25Q71.55-13.6 71.55-18.3L71.55-18.3 71.55-27.9Q71.55-28.3 71.92-28.65 72.3-29 72.7-29L72.7-29Q76.3-29 77.7-28.95L77.7-28.95 81.35-28.9Q82.85-28.9 86.35-29L86.35-29Q88.15-29.05 92.3-29.05L92.3-29.05Q95.35-29.05 97.55-28.3L97.55-28.3Q100.35-27.4 102.3-25.4L102.3-25.4Q104.3-23 104.3-19.05L104.3-19.05Q104.3-12.55 100.95-9.45L100.95-9.45Q97.9-6.7 92.1-6.7L92.1-6.7 86.15-6.7Q86.15-5.2 86.05-4.9L86.05-4.9Q86.05-4.55 86-4.4 85.95-4.25 85.95-4.2L85.95-4.2Q85.95-4.05 86.05-3.9L86.05-3.9 86.05-3.2 86.15-2.55 86.15-2.2Q86.15-0.85 85.55-0.3L85.55-0.3Q85.3-0.1 84.82-0.05 84.35 0 83.8 0L83.8 0 81.1 0 79.7 0.05Q77.6 0.15 76.3 0.15L76.3 0.15 72.95 0.15ZM87.35-11.95L88.55-11.95Q89.35-11.95 89.85-13.65L89.85-13.65Q90.2-14.8 90.4-17.2L90.4-17.2Q90.45-18.4 90.45-20L90.45-20 90.45-20.45Q90.45-21.55 90.2-22.55L90.2-22.55Q89.95-24.05 89.35-24.55L89.35-24.55Q89-24.9 88.55-24.9L88.55-24.9Q88.15-24.9 87.85-24.4L87.85-24.4Q87.3-23.35 87.05-20.9L87.05-20.9Q86.8-19.5 86.8-18.5L86.8-18.5Q86.55-16.2 86.55-12.05L86.55-12.05Q86.55-12.05 86.62-12.03 86.7-12 86.8-12L86.8-12Q86.85-11.95 87.35-11.95L87.35-11.95ZM125.59 0.15L123.14 0.15 120.84 0.15 118.24 0.15 114.94 0.15Q114.49-0.55 114.34-2.4L114.34-2.4Q114.14-4.05 114.14-7.2L114.14-7.2 114.19-12.7Q114.24-14.7 114.24-19.05L114.24-19.05 114.09-19.2 109.14-19.2Q108.04-19.2 107.69-21.7L107.69-21.7Q107.49-23.05 107.49-25.65L107.49-25.65 107.49-26.3Q107.59-26.65 107.59-27.4L107.59-27.4 107.59-28.4 107.64-28.8 107.84-29 108.74-28.95 109.74-28.95Q111.94-28.95 113.09-29L113.09-29 116.34-29 117.24-29 118.94-29 121.09-29 123.24-29Q123.89-28.95 125.09-28.95L125.09-28.95 126.34-28.95Q126.54-29.05 126.99-29.05L126.99-29.05Q127.34-29.15 127.64-29.15L127.64-29.15Q128.59-29.15 129.09-29.05L129.09-29.05Q130.09-28.95 130.59-28.95L130.59-28.95 131.89-29 133.84-29Q135.34-29 135.89-28.95L135.89-28.95 136.59-28.9Q136.64-28.85 136.74-28.78 136.84-28.7 136.84-28.65L136.84-28.65 136.84-20.15Q136.84-19.85 136.52-19.5 136.19-19.15 135.89-19.05L135.89-19.05Q134.24-19.4 131.59-19.4L131.59-19.4 129.69-19.4Q128.94-19.4 128.69-17.5L128.69-17.5Q128.59-16.95 128.59-15.9L128.59-15.9 128.59-14.4Q128.59-13.4 128.64-12.9L128.64-12.9 128.64-11.5Q128.64-9.45 128.44-7.7L128.44-7.7Q128.34-6.4 128.34-5.8L128.34-5.8Q128.24-5.2 128.24-4.15L128.24-4.15Q128.24-2.65 128.14-1.65L128.14-1.65Q128.09-0.1 126.99 0L126.99 0Q125.79 0.15 125.59 0.15L125.59 0.15ZM143.14-0.2Q143.04-0.2 142.99-0.4L142.99-0.4Q142.64-0.85 142.49-1.5L142.49-1.5Q142.34-1.75 142.24-2.15L142.24-2.15Q141.79-3.05 141.59-4.65L141.59-4.65Q141.39-6.95 141.39-8.3L141.39-8.3Q141.34-8.9 141.34-9.95L141.34-9.95 141.34-11.15Q141.34-12.65 141.29-13.5L141.29-13.5Q141.24-14.4 141.24-17.05L141.24-17.05Q141.24-24.15 141.54-28L141.54-28Q141.54-28.6 143.24-28.9L143.24-28.9 144.74-28.9 145.99-28.9Q148.84-28.9 150.24-28.8L150.24-28.8Q152.34-28.65 154.49-28.65L154.49-28.65Q154.99-28.65 155.24-28.7L155.24-28.7 155.99-28.7 156.24-28.5Q157.89-28.85 159.64-28.95 161.39-29.05 163.89-29.05L163.89-29.05Q163.99-29.05 164.14-28.9L164.14-28.9 165.74-28.9Q166.14-28.9 166.37-28.45 166.59-28 166.74-27.15L166.74-27.15Q166.94-26.5 167.04-25.55L167.04-25.55Q167.24-24.3 167.39-23.9L167.39-23.9Q167.39-22.5 166.89-22.5L166.89-22.5Q166.84-22.5 166.74-22.65L166.74-22.65 166.54-22.7Q166.29-22.75 165.99-22.65L165.99-22.65Q165.69-22.5 165.34-22.5L165.34-22.5Q165.04-22.5 164.84-22.65L164.84-22.65Q164.74-22.7 164.39-22.7L164.39-22.7Q163.94-22.7 163.34-22.55L163.34-22.55Q163.14-22.5 162.57-22.4 161.99-22.3 161.24-22.3L161.24-22.3Q159.09-22.3 158.14-22.2L158.14-22.2Q157.59-22.15 157.09-21.9L157.09-21.9 157.09-22Q156.89-22 156.74-21.5L156.74-21.5Q156.39-20.65 156.29-19.15L156.29-19.15Q156.24-18.7 156.24-18.15L156.24-18.15Q156.24-17.6 156.42-17.4 156.59-17.2 156.99-17.2L156.99-17.2Q157.29-17.2 157.49-17.4L157.49-17.4Q157.59-17.4 157.74-17.35 157.89-17.3 157.99-17.2L157.99-17.2 162.24-17.2Q162.29-17.3 162.39-17.35 162.49-17.4 162.59-17.4L162.59-17.4Q163.09-17.4 163.34-17.25L163.34-17.25Q163.64-17.1 164.54-16.95L164.54-16.95Q165.04-16.95 165.24-16.65L165.24-16.65Q165.49-16.3 165.49-16L165.49-16 166.54-12.7Q166.69-11.9 165.04-11.65L165.04-11.65Q164.09-11.45 161.39-11.45L161.39-11.45 159.24-11.45 157.74-11.45Q157.04-11.45 156.69-11.38 156.34-11.3 156.24-11L156.24-11Q156.04-10.75 156.04-10.2L156.04-10.2 156.04-10Q156.04-9.75 156.09-9.65L156.09-9.65 156.04-8.55Q155.99-8.2 155.99-7.5L155.99-7.5 155.99-7 155.99-6.55 155.99-6.25Q158.24-6.25 160.59-6.4L160.59-6.4Q162.89-6.55 165.14-6.55L165.14-6.55Q165.29-6.55 165.39-6.33 165.49-6.1 165.49-5.8L165.49-5.8Q165.59-5.5 165.59-5.15L165.59-5.15Q165.69-4.4 165.89-3.75L165.89-3.75 166.24-2.3 166.24-1.3 166.24-1.15 166.24-0.75 165.84-0.4 165.49-0.4 165.34-0.4Q164.79-0.4 164.64-0.45L164.64-0.45Q164.49-0.55 164.29-0.55L164.29-0.55Q164.19-0.5 163.99-0.4 163.79-0.3 163.64-0.2L163.64-0.2 163.64-0.45 163.04-0.4 162.29-0.4Q162.09-0.4 161.99-0.5L161.99-0.5 161.59-0.55Q159.74-0.55 158.99-0.2L158.99-0.2 143.14-0.2ZM187.64 1.2Q183.24 1.2 180.39 0.4L180.39 0.4Q176.59-0.65 174.49-3.65L174.49-3.65Q172.14-7 172.14-13.4L172.14-13.4Q172.14-17.3 173.19-20.43 174.24-23.55 176.24-25.7L176.24-25.7Q178.24-27.8 180.89-28.9 183.54-30 186.64-30L186.64-30Q191.84-30 197.44-26.75L197.44-26.75 196.79-21.15 195.64-21.4Q195.44-21.45 194.09-21.75 192.74-22.05 191.64-22.05L191.64-22.05Q189.29-22.05 188.14-20.45L188.14-20.45Q186.64-18.45 186.64-14L186.64-14Q186.64-10.35 187.69-8.5L187.69-8.5Q188.69-6.95 190.39-6.95L190.39-6.95Q191.59-6.95 193.19-7.75L193.19-7.75Q194.74-8.5 196.19-9.5L196.19-9.5 196.69-2.4Q194.94-0.75 192.39 0.2L192.39 0.2Q190.09 1.2 187.64 1.2L187.64 1.2ZM225.39 0.9L224.39-0.15Q224.29-0.4 224.14-0.4L224.14-0.4 224.09-0.5Q224.04-0.5 223.96-0.58 223.89-0.65 223.84-0.65L223.84-0.65 219.89-5.15Q219.84-5.25 219.49-5.65 219.14-6.05 218.94-6.25L218.94-6.25Q218.49-6.7 218.34-6.9L218.34-6.9Q217.99-7.15 217.89-7.15L217.89-7.15Q217.59-7.15 217.59-6.8L217.59-6.8 217.59-5.75Q217.49-5.2 217.49-4.15L217.49-4.15Q217.44-3.55 217.44-2.55L217.44-2.55Q217.39-2.05 217.39-1.5L217.39-1.5 217.39-1.15 217.39-0.7Q217.39 0 217.24 0L217.24 0 217.09 0 216.84 0 216.59 0 216.39 0Q214.94 0.15 212.09 0.15L212.09 0.15 207.74 0.15 206.99 0.15 206.09 0.15 205.34 0.15 204.99 0.15 203.09-0.3 202.94-0.65 202.94-1.15Q202.89-1.45 202.89-2.4L202.89-2.4Q202.84-3.4 202.84-6.05L202.84-6.05Q202.84-7.3 202.74-7.9L202.74-7.9 202.74-9.4Q202.59-17 202.59-24.95L202.59-24.95 202.59-26.15Q202.49-26.65 202.49-27.25L202.49-27.25 202.49-27.45 202.49-27.8 202.49-28.15Q202.49-28.25 202.59-28.3L202.59-28.3Q202.69-28.7 202.96-28.88 203.24-29.05 203.69-29.15L203.69-29.15Q203.89-29.15 204.06-29.1 204.24-29.05 204.49-29.05L204.49-29.05Q205.19-28.95 205.34-28.95L205.34-28.95 213.84-28.95 217.69-28.9Q217.79-28.9 217.84-28.85 217.89-28.8 217.89-28.7L217.89-28.7Q218.09-28.2 218.09-27.65L218.09-27.65Q218.14-27.4 218.14-26.95L218.14-26.95Q218.14-24.8 218.09-23.75L218.09-23.75Q217.89-22.4 217.89-21.05L217.89-21.05Q218.49-21.05 218.84-21.3L218.84-21.3Q218.89-21.35 218.99-21.4 219.09-21.45 219.14-21.55L219.14-21.55Q219.24-21.7 219.59-21.95L219.59-21.95 220.34-22.7Q222.09-24.25 221.94-24.15L221.94-24.15 225.94-27.9Q226.49-28.35 226.91-28.7 227.34-29.05 227.64-29.3L227.64-29.3Q228.49-29.9 228.69-29.9L228.69-29.9Q228.94-29.9 229.24-29.4L229.24-29.4Q229.74-28.9 229.84-28.75L229.84-28.75Q230.29-27.9 231.09-27.13 231.89-26.35 232.09-26.15L232.09-26.15Q232.94-25.2 233.39-24.6 233.84-24 234.14-23.25L234.14-23.25 234.14-23.15Q234.14-22.4 232.99-21.25L232.99-21.25Q232.69-20.95 232.46-20.75 232.24-20.55 232.09-20.4L232.09-20.4 231.34-19.65Q231.19-19.65 230.94-19.3L230.94-19.3 229.24-17.9Q228.29-17.05 227.59-16.5L227.59-16.5 227.19-16.15 226.84-15.9Q226.44-15.75 226.34-15.65L226.34-15.65Q226.34-15.55 226.29-15.45 226.24-15.35 226.24-15.2L226.24-15.2Q226.24-14.85 226.46-14.53 226.69-14.2 226.94-13.9L226.94-13.9Q227.09-13.7 227.59-13.4L227.59-13.4Q227.59-13.4 228.09-12.9L228.09-12.9 228.94-12.15 230.59-10.7 232.04-9.35 233.74-7.7Q234.59-6.8 234.96-6.28 235.34-5.75 235.34-5.4L235.34-5.4Q235.34-4.9 234.99-4.65L234.99-4.65Q234.19-3.9 233.59-3.5L233.59-3.5Q232.59-2.8 232.09-2.4L232.09-2.4Q230.24-0.95 229.34-0.45L229.34-0.45Q229.14-0.4 227.94 0.15L227.94 0.15 227.14 0.55Q226.79 0.75 226.74 0.75L226.74 0.75Q226.14 1.05 225.79 1.05L225.79 1.05Q225.54 1.05 225.39 0.9L225.39 0.9Z" opacity="1" transform="matrix(1,0,0,1,0,0)" fill="#66cc33" class="wordmark-text-0" data-fill-palette-color="primary" id="text-0"></path></svg></g></svg></g><g transform="matrix(1,0,0,1,3.5,60.186498755246085)"><svg viewBox="0 0 309.416 25.468615093299935" height="25.468615093299935" width="309.416"><g transform="matrix(1,0,0,1,0,0)"><svg width="309.416" viewBox="-2.56 -41.5 669.76 55.66" height="25.468615093299935" data-palette-color="#d2d6dc"><path d="M12.23-35.55L6.71-3.83 23.07-3.83 22.39 0 1.44 0 7.62-35.55 12.23-35.55ZM81.63 0L77.13 0Q76.96-0.71 76.96-1.39L76.96-1.39 77.04-2.78Q73.4 0.59 69.32 0.49L69.32 0.49Q65.83 0.44 63.65-1.72 61.46-3.88 61.66-7.13L61.66-7.13Q61.9-11.33 65.33-13.68 68.76-16.04 74.35-16.04L74.35-16.04 78.97-16.02 79.26-18.12Q79.5-20.48 78.34-21.86 77.18-23.24 74.86-23.29L74.86-23.29Q72.59-23.34 70.85-22.18 69.1-21.02 68.71-19.12L68.71-19.12 64.27-19.09Q64.49-21.41 66.07-23.21 67.66-25 70.15-25.99 72.64-26.98 75.3-26.93L75.3-26.93Q79.43-26.83 81.72-24.43 84.02-22.02 83.65-18.04L83.65-18.04 81.5-4.96 81.38-3.08Q81.33-1.73 81.68-0.42L81.68-0.42 81.63 0ZM70.2-3.42L70.2-3.42Q72.32-3.37 74.22-4.43 76.11-5.49 77.48-7.37L77.48-7.37 78.43-12.82 75.08-12.84Q70.91-12.84 68.69-11.52 66.47-10.21 66.17-7.79L66.17-7.79Q65.95-5.93 67.04-4.7 68.13-3.47 70.2-3.42ZM145.48-13.6L145.41-13.09Q144.92-9.06 143.23-5.83 141.55-2.61 139.06-1.01 136.57 0.59 133.54 0.51L133.54 0.51Q128.95 0.42 126.51-2.59L126.51-2.59 124.14 10.16 119.72 10.16 126.07-26.42 130.07-26.44 129.59-23.49Q132.86-27 137.42-26.9L137.42-26.9Q141.23-26.81 143.36-24.1 145.48-21.39 145.6-16.63L145.6-16.63Q145.63-15.06 145.48-13.6L145.48-13.6ZM141.06-13.6L141.06-13.6 141.18-15.65Q141.18-19.21 139.83-21.11 138.47-23 135.91-23.1L135.91-23.1Q132.08-23.19 129.29-19.46L129.29-19.46 127.07-6.79Q128.56-3.27 132.42-3.17L132.42-3.17Q135.71-3.1 138.02-5.75 140.33-8.4 141.06-13.6ZM190.09-32.81L194.49-32.81 193.37-26.42 198.17-26.42 197.56-22.92 192.78-22.92 190.02-6.49Q189.95-5.86 190-5.32L190-5.32Q190.17-3.42 192.07-3.42L192.07-3.42Q192.88-3.42 194.22-3.66L194.22-3.66 193.88 0.02Q192.29 0.46 190.66 0.46L190.66 0.46Q188.02 0.42 186.7-1.48 185.38-3.37 185.67-6.57L185.67-6.57 188.36-22.92 183.7-22.92 184.31-26.42 188.97-26.42 190.09-32.81ZM246.96-26.9L246.96-26.9Q250.28-26.86 252.65-25.1 255.02-23.34 256.16-20.25 257.29-17.16 256.93-13.5L256.93-13.5 256.88-12.96Q256.41-9.11 254.58-5.99 252.75-2.88 249.84-1.15 246.94 0.59 243.47 0.49L243.47 0.49Q240.18 0.44 237.8-1.32 235.42-3.08 234.32-6.1 233.22-9.13 233.54-12.77L233.54-12.77Q233.9-16.87 235.76-20.14 237.61-23.41 240.53-25.21 243.45-27 246.96-26.9ZM238.03-13.31L237.98-12.74Q237.81-11.21 237.98-9.55L237.98-9.55Q238.22-6.67 239.7-4.96 241.18-3.25 243.64-3.17L243.64-3.17Q245.84-3.1 247.7-4.26 249.55-5.42 250.82-7.76 252.09-10.11 252.46-12.96L252.46-12.96Q252.65-15.21 252.53-16.75L252.53-16.75Q252.24-19.7 250.75-21.41 249.26-23.12 246.79-23.22L246.79-23.22Q243.38-23.29 240.98-20.53 238.59-17.77 238.03-13.31L238.03-13.31ZM318.07-13.6L317.99-13.09Q317.51-9.06 315.82-5.83 314.14-2.61 311.65-1.01 309.16 0.59 306.13 0.51L306.13 0.51Q301.54 0.42 299.1-2.59L299.1-2.59 296.73 10.16 292.31 10.16 298.66-26.42 302.66-26.44 302.17-23.49Q305.45-27 310.01-26.9L310.01-26.9Q313.82-26.81 315.94-24.1 318.07-21.39 318.19-16.63L318.19-16.63Q318.21-15.06 318.07-13.6L318.07-13.6ZM313.65-13.6L313.65-13.6 313.77-15.65Q313.77-19.21 312.42-21.11 311.06-23 308.5-23.1L308.5-23.1Q304.66-23.19 301.88-19.46L301.88-19.46 299.66-6.79Q301.15-3.27 305.01-3.17L305.01-3.17Q308.3-3.1 310.61-5.75 312.92-8.4 313.65-13.6ZM410.01-35.55L411.67-10.96 411.57-6.67 413.23-10.86 423.85-35.55 427.73-35.55 430.54-10.55 430.78-6.49 432.32-11.4 441.4-35.55 446.12-35.55 432.2 0 428.02 0 424.95-26.1 424.85-28.54 423.83-25.71 412.5 0 408.32 0 405.54-35.55 410.01-35.55ZM492.59-26.9L492.59-26.9Q495.91-26.86 498.27-25.1 500.64-23.34 501.78-20.25 502.91-17.16 502.55-13.5L502.55-13.5 502.5-12.96Q502.03-9.11 500.2-5.99 498.37-2.88 495.47-1.15 492.56 0.59 489.09 0.49L489.09 0.49Q485.8 0.44 483.42-1.32 481.04-3.08 479.94-6.1 478.84-9.13 479.16-12.77L479.16-12.77Q479.52-16.87 481.38-20.14 483.23-23.41 486.15-25.21 489.07-27 492.59-26.9ZM483.65-13.31L483.6-12.74Q483.43-11.21 483.6-9.55L483.6-9.55Q483.85-6.67 485.32-4.96 486.8-3.25 489.27-3.17L489.27-3.17Q491.46-3.1 493.32-4.26 495.17-5.42 496.44-7.76 497.71-10.11 498.08-12.96L498.08-12.96Q498.27-15.21 498.15-16.75L498.15-16.75Q497.86-19.7 496.37-21.41 494.88-23.12 492.41-23.22L492.41-23.22Q489-23.29 486.6-20.53 484.21-17.77 483.65-13.31L483.65-13.31ZM556.61-26.59L556.12-22.39 554.05-22.61Q549.8-22.61 547.36-18.77L547.36-18.77 544.11 0 539.69 0 544.28-26.42 548.55-26.44 547.89-23.36Q550.7-27.05 554.51-26.95L554.51-26.95Q555.32-26.95 556.61-26.59L556.61-26.59ZM601.52-37.5L595 0 590.6 0 597.1-37.5 601.52-37.5ZM637.37-13.26L637.37-13.26Q637.85-17.29 639.59-20.53 641.32-23.78 643.86-25.39 646.4-27 649.45-26.93L649.45-26.93Q653.87-26.83 656.24-23.71L656.24-23.71 658.78-37.5 663.2-37.5 656.7 0 652.67 0 653.14-2.83Q650.01 0.59 645.42 0.49L645.42 0.49Q641.76 0.39 639.59-2.38 637.42-5.15 637.24-9.81L637.24-9.81Q637.17-11.25 637.37-13.26ZM641.61-10.72L641.61-10.72Q641.54-7.23 642.86-5.3 644.18-3.37 646.72-3.32L646.72-3.32Q650.55-3.15 653.53-7.18L653.53-7.18 655.63-19.38Q654.16-23 650.31-23.1L650.31-23.1Q647.69-23.17 645.7-21.52 643.71-19.87 642.68-16.91 641.64-13.94 641.61-10.72Z" opacity="1" transform="matrix(1,0,0,1,0,0)" fill="#d2d6dc" class="slogan-text-1" data-fill-palette-color="secondary" id="text-1"></path></svg></g></svg></g></svg></g></svg></g></svg></g></svg></g></svg></g><g mask="url(#f9f4609f-06ad-4769-8cdb-4aae6413b67f)"><g transform="matrix(3.0487274174095766, 0, 0, 3.0487274174095766, 45.32310283852999, 1)"><svg xmlns="http://www.w3.org/2000/svg" xmlns:xlink="http://www.w3.org/1999/xlink" version="1.1" x="0" y="0" viewBox="0 9.786 100.00034525290006 80.42699999999999" enable-background="new 0 0 100 100" xml:space="preserve" width="100.00034525290006" height="80.42699999999999" class="icon-none" data-fill-palette-color="accent" id="none"><path d="M49.942 52.994c13.552-0.488 27.103-0.977 40.653-1.465-2.527-4.177-3.159-7.831-7.989-8.461-7.229-0.94-14.458-1.883-21.688-2.826-14.023-1.827-28.05-3.654-42.075-5.48C20.101 36.792 39.724 53.361 49.942 52.994z" fill="#d2d6dc" data-fill-palette-color="accent"></path><path d="M0 9.786c4.391 7.257 26.615 23.072 32.953 23.886 17.33 2.231 34.657 4.46 51.986 6.688-3.393-5.607-4.18-9.35-10.312-10.959-8.904-2.341-17.812-4.683-26.717-7.023C31.94 18.182 15.97 13.984 0 9.786z" fill="#d2d6dc" data-fill-palette-color="accent"></path><path d="M63.108 66.207c10.413-2.219 20.826-4.439 31.241-6.66-2.028-3.346-2.034-5.359-5.827-5.189-6.158 0.273-12.314 0.549-18.471 0.822-11.343 0.506-22.686 1.014-34.028 1.518C37.298 58.064 54.94 67.947 63.108 66.207z" fill="#d2d6dc" data-fill-palette-color="accent"></path><path d="M87.682 90.213c5.725-3.719 7.262-7.721 10.519-13.807 3.651-6.824 1.257-7.844-2.821-14.596-0.417-0.688-5.842 0.232-6.453 0.904-0.745 0.818-0.248 5.455-0.294 6.496C88.315 76.211 87.998 83.213 87.682 90.213z" fill="#d2d6dc" data-fill-palette-color="accent"></path><path d="M86.35 63.447c-3.795 0.809-8.604 0.191-9.572 4.229-1.373 5.736-2.746 11.475-4.12 17.211C81.904 82.678 86.028 71.582 86.35 63.447z" fill="#d2d6dc" data-fill-palette-color="accent"></path><path d="M74.666 66.121c-9.148 1.953-8.956 4.611-12.879 13.18C68.007 78.711 73.811 71.941 74.666 66.121z" fill="#d2d6dc" data-fill-palette-color="accent"></path></svg></g></g></svg></g><defs></defs></svg><rect width="395.52" height="247.2" fill="none" stroke="none" visibility="hidden"></rect></g></svg></g></svg>